<svg xmlns="http://www.w3.org/2000/svg" xmlns:xlink="http://www.w3.org/1999/xlink" width="400" height="400" viewBox="0 0 400 400"><g data-name="icon" fill="#fe843f" data="id:7366314" transform="translate(33.33488265673318, 33.33470662434896) scale(3.3333333333333335)">
    
 <path d="m95 2h-24c-1.6562 0-3 1.3438-3 3s-1.3438 3-3 3-3-1.3438-3-3-1.3438-3-3-3h-24c-1.6562 0-3 1.3438-3 3v45h-27c-1.6562 0-3 1.3438-3 3 0 0.39453 0.078125 0.78906 0.23047 1.1523 5.2539 12.711 5.2539 26.984 0 39.691-0.63672 1.5273 0.085937 3.2852 1.6133 3.9219 0.36719 0.15625 0.76172 0.23438 1.1562 0.23438h90c1.6562 0 3-1.3438 3-3v-90c0-1.6562-1.3438-3-3-3zm-34.316 90h-51.367c1.9102-5.8086 2.8828-11.887 2.875-18 0.007813-6.1133-0.96094-12.191-2.875-18h51.367c-3.832 11.695-3.832 24.305 0 36zm6.8164-40.664c-0.55859-0.83594-1.4961-1.3359-2.5-1.3359h-15v-18c0.003906-3.3125 2.6875-5.9961 6-6h18c3.3125 0.003906 5.9961 2.6875 6 6v30c-0.003906 3.3125-2.6875 5.9961-6 6h-9.8242c0.54688-4.7617 1.7578-9.4219 3.5938-13.848 0.38672-0.92188 0.28516-1.9805-0.26953-2.8164zm24.5 40.664h-24.957c-0.72656-1.9609-1.332-3.9648-1.8125-6h26.77zm0-12h-27.824c-0.23047-1.9922-0.34766-3.9961-0.34766-6h10.172c6.625-0.007812 11.992-5.375 12-12v-30c-0.007812-6.625-5.375-11.992-12-12h-18c-6.625 0.007812-11.992 5.375-12 12v18h-6v-42h18.516c1.6562 4.6875 6.7969 7.1445 11.484 5.4883 2.5664-0.90625 4.582-2.9219 5.4883-5.4883h18.512zm-49.312-15h-15.375c-4.9727 0-9 4.0273-9 9s4.0273 9 9 9h15.375c4.9727 0 9-4.0273 9-9s-4.0312-9-9-9zm0 12h-15.375c-1.6562 0-3-1.3438-3-3s1.3438-3 3-3h15.375c1.6562 0 3 1.3438 3 3s-1.3438 3-3 3z" fill="#FFFFFF"/>

    </g></svg>