<svg xmlns="http://www.w3.org/2000/svg" xmlns:xlink="http://www.w3.org/1999/xlink" width="2048" height="1152" viewBox="0 0 2048 1152"><rect data-name="background" width="100%" height="100%" fill="#ffffff"/><g transform="translate(257.64771031304304, -190.35230795821974) scale(3.8317615397910987)"><g data-name="icon" fill="#fe843f" data="id:7366314" transform="translate(10.907570994793945,149.36732378314557) scale(1.012661868413763)">
    
 <path d="m95 2h-24c-1.6562 0-3 1.3438-3 3s-1.3438 3-3 3-3-1.3438-3-3-1.3438-3-3-3h-24c-1.6562 0-3 1.3438-3 3v45h-27c-1.6562 0-3 1.3438-3 3 0 0.39453 0.078125 0.78906 0.23047 1.1523 5.2539 12.711 5.2539 26.984 0 39.691-0.63672 1.5273 0.085937 3.2852 1.6133 3.9219 0.36719 0.15625 0.76172 0.23438 1.1562 0.23438h90c1.6562 0 3-1.3438 3-3v-90c0-1.6562-1.3438-3-3-3zm-34.316 90h-51.367c1.9102-5.8086 2.8828-11.887 2.875-18 0.007813-6.1133-0.96094-12.191-2.875-18h51.367c-3.832 11.695-3.832 24.305 0 36zm6.8164-40.664c-0.55859-0.83594-1.4961-1.3359-2.5-1.3359h-15v-18c0.003906-3.3125 2.6875-5.9961 6-6h18c3.3125 0.003906 5.9961 2.6875 6 6v30c-0.003906 3.3125-2.6875 5.9961-6 6h-9.8242c0.54688-4.7617 1.7578-9.4219 3.5938-13.848 0.38672-0.92188 0.28516-1.9805-0.26953-2.8164zm24.5 40.664h-24.957c-0.72656-1.9609-1.332-3.9648-1.8125-6h26.77zm0-12h-27.824c-0.23047-1.9922-0.34766-3.9961-0.34766-6h10.172c6.625-0.007812 11.992-5.375 12-12v-30c-0.007812-6.625-5.375-11.992-12-12h-18c-6.625 0.007812-11.992 5.375-12 12v18h-6v-42h18.516c1.6562 4.6875 6.7969 7.1445 11.484 5.4883 2.5664-0.90625 4.582-2.9219 5.4883-5.4883h18.512zm-49.312-15h-15.375c-4.9727 0-9 4.0273-9 9s4.0273 9 9 9h15.375c4.9727 0 9-4.0273 9-9s-4.0312-9-9-9zm0 12h-15.375c-1.6562 0-3-1.3438-3-3s1.3438-3 3-3h15.375c1.6562 0 3 1.3438 3 3s-1.3438 3-3 3z"/>

    </g><g data-name="business_name" fill="#303030" data="id:222" transform="translate(131.24290746088852,144.85217782069924) scale(1.6219946789879829)"><path d="M10.24,48.64c-3.28,0-8.28-1.44-7.8-3.2l0.4-1.48c1.12-4.2,2.44,1.96,9.04,1.96c3.36,0,5-1.64,5-3.96c0-1.88-1.2-2.68-4.04-4.44l-3.88-2.44c-4.32-2.72-6.08-4.4-6.08-7.4c0-4.92,4.8-8.32,9.76-8.32c3.04,0,6.92,1.32,6.48,2.68l-0.48,1.52c-1.24,3.88-2.24-1.48-7.72-1.48c-2.84,0-4.32,1.44-4.32,3.56c0,1.8,1.08,2.8,3.76,4.44l4.2,2.6c4.24,2.64,5.96,4.44,5.96,7.32c0,5-4.92,8.64-10.28,8.64z M23.92,48.08c-0.4,0.04-0.56-1.36-0.24-1.44c2.32-0.6,4.12-0.96,4.12-3.92l0-17.76c0-2.56-1.64-3.24-3.36-3.68c-0.32-0.08-0.12-1.4,0.2-1.36c2.92,0.32,7.96,0.24,10.4,0.24c3.64,0,6.28-0.16,9.56-0.24c0.96,0,0.96,0.64,0.76,1.56l-0.96,3.8c-0.12,0.56-1.12,0.56-1.28,0c-0.6-1.96-1.8-3.08-6.8-3.08c-2.8,0-3.72,0.72-3.72,2.8l0,6.52c0,1.04,0.52,1.24,1.32,1.24l0.88,0c3.24,0,6.04-0.32,7.68-1.8c0.4-0.36,1.28-0.28,0.92,0.52l-2.28,5.04c-0.32,0.72-0.92,0.64-1.36,0.04c-0.92-1.28-2.96-1.8-5.28-1.8l-0.56,0c-0.8,0-1.32,0.2-1.32,1.24l0,6.72c0,2.28,0.96,3.12,4.28,3.12c6.04,0,8.44-2.76,9.4-4.28c0.28-0.44,1.36-0.24,1.36,0.44c0,2.04-1.72,6.08-4.24,6.08c-2.24-0.12-4.44-0.24-7.8-0.24c-3.68,0-8.04-0.12-11.68,0.24z M77.36,48.4c-0.68,0-1.04-0.28-1.48-0.76l-19.04-19.92l0,15.2c0,2.72,1.6,3.16,3.88,3.72c0.32,0.08,0.16,1.36-0.24,1.36l-9.48,0c-0.32,0-0.56-1.24-0.2-1.36c1.68-0.56,3.28-0.88,3.28-3.72l0-15.52c0-2.84-0.44-4.2-1.48-5.6c-0.36-0.48-0.72-0.8-0.72-0.92c0-0.36,0.24-0.88,0.8-0.88l2.96,0c0.4,0,0.68,0.04,0.96,0.36l18.64,19.72l0-15.04c0-2.84-1.8-3.16-3.88-3.68c-0.32-0.08-0.16-1.36,0.24-1.36l9.48,0c0.32,0,0.52,1.28,0.2,1.36c-1.76,0.52-3.28,0.84-3.28,3.68l0,15.56c0,2.64,0.08,5.56,0.48,7.04c0.16,0.6-0.48,0.76-1.12,0.76z M85.04,48c-0.32,0-0.56-1.32-0.24-1.36c2.04-0.28,3.32-1.08,3.32-3.6l0-18.08c0-2.52-1.28-3.32-3.32-3.6c-0.32-0.04-0.08-1.36,0.24-1.36l10.96,0c0.32,0,0.56,1.32,0.24,1.36c-1.72,0.24-3.32,0.8-3.32,3.6l0,18.08c0,2.8,1.6,3.36,3.32,3.6c0.32,0.04,0.08,1.36-0.24,1.36l-10.96,0z M114.64,48.64c-8.32,0-14.44-6.16-14.44-14.48c0-8.08,5.76-14.8,14.52-14.8c8.36,0,14.44,6.12,14.44,14.44c0,8.12-5.72,14.84-14.52,14.84z M116.2,45.92c3.52,0,8.2-2.32,8.2-9.88c0-8.08-5.48-13.96-11.24-13.96c-3.52,0-8.16,2.32-8.16,9.84c0,8.16,5.48,14,11.2,14z M149.36,48.64c-6.72,0-15.8-3.92-15.8-14.12c0-6.92,4.24-15.16,15.44-15.16c4.64,0,8.64,1.44,8.16,2.84l-0.52,1.56c-1.44,4.28-3-1.2-10.12-1.2c-5.72,0-8.52,3.72-8.52,9.48c0,9,6.84,12.76,12.32,12.76c0.72,0,4.36-0.56,6.44-1.88c0.32-0.2,1.16,0.72,0.92,1.08c-1.72,2.52-7.08,4.64-8.32,4.64z"/></g></g></svg>